<?xml version="1.0" encoding="UTF-8"?>
<svg xmlns="http://www.w3.org/2000/svg" xmlns:xlink="http://www.w3.org/1999/xlink" width="50px" height="50px" viewBox="0 0 50 50" version="1.1">
<g id="surface1">
<path style="fill:none;stroke-width:1;stroke-linecap:round;stroke-linejoin:round;stroke:rgb(0%,0%,0%);stroke-opacity:1;stroke-miterlimit:4;" d="M 14.80875 16.19625 C 13.62 18.2775 12.43125 21.74625 12.03375 23.8275 C 10.64625 30.8625 12.2325 42.06375 15.9975 43.35 C 19.86375 44.64 26.30625 37.305 29.47875 31.95375 C 30.86625 29.67375 32.1525 25.71 32.4525 22.83375 " transform="matrix(1.041667,0,0,1.041667,0,0)"/>
<path style="fill:none;stroke-width:1;stroke-linecap:round;stroke-linejoin:round;stroke:rgb(0%,0%,0%);stroke-opacity:1;stroke-miterlimit:4;" d="M 24.6225 11.9325 C 23.8275 10.545 21.74625 8.565 19.76625 8.6625 C 15.5025 8.76 11.93625 12.62625 12.43125 15.40125 C 12.82875 17.08875 16.395 15.6 20.26125 14.61 " transform="matrix(1.041667,0,0,1.041667,0,0)"/>
<path style="fill:none;stroke-width:1;stroke-linecap:round;stroke-linejoin:round;stroke:rgb(0%,0%,0%);stroke-opacity:1;stroke-miterlimit:4;" d="M 30.1725 18.87 C 31.6575 21.34875 33.345 24.3225 34.7325 24.3225 C 37.2075 24.42 37.00875 17.7825 34.23375 14.7075 C 33.14625 13.42125 30.46875 12.825 28.3875 13.42125 " transform="matrix(1.041667,0,0,1.041667,0,0)"/>
<path style="fill:none;stroke-width:1;stroke-linecap:round;stroke-linejoin:round;stroke:rgb(0%,0%,0%);stroke-opacity:1;stroke-miterlimit:4;" d="M 26.505 12.62625 C 31.36125 14.31375 30.6675 17.08875 29.87625 18.87 C 28.8825 21.34875 25.71 24.12375 23.13375 23.3325 C 20.5575 22.5375 18.97125 17.9775 20.65875 13.7175 C 21.64875 11.23875 24.02625 11.835 26.505 12.62625 Z M 26.505 12.62625 " transform="matrix(1.041667,0,0,1.041667,0,0)"/>
<path style="fill:none;stroke-width:1;stroke-linecap:round;stroke-linejoin:round;stroke:rgb(0%,0%,0%);stroke-opacity:1;stroke-miterlimit:4;" d="M 32.65125 4.5 C 31.6575 5.19375 30.46875 6.285 29.3775 7.77 C 28.29 9.25875 27 11.4375 26.505 12.52875 " transform="matrix(1.041667,0,0,1.041667,0,0)"/>
</g>
</svg>
