<?xml version="1.0" encoding="UTF-8"?>
<svg xmlns="http://www.w3.org/2000/svg" xmlns:xlink="http://www.w3.org/1999/xlink" width="100px" height="50px" viewBox="0 0 100 50" version="1.1">
<defs>
<clipPath id="clip1">
  <path d="M 0 0.0625 L 49.9375 0.0625 L 49.9375 50 L 0 50 Z M 0 0.0625 "/>
</clipPath>
</defs>
<g id="surface1">
<g clip-path="url(#clip1)" clip-rule="nonzero">
<path style=" stroke:none;fill-rule:nonzero;fill:rgb(94.117647%,23.529412%,18.039216%);fill-opacity:1;" d="M 48.996094 22.808594 L 27.195312 1.003906 C 25.9375 -0.253906 23.898438 -0.253906 22.644531 1.003906 L 18.117188 5.53125 L 23.859375 11.273438 C 25.238281 10.808594 26.761719 11.160156 27.789062 12.191406 C 28.824219 13.226562 29.175781 14.761719 28.695312 16.144531 L 34.234375 21.679688 C 35.617188 21.199219 37.152344 21.550781 38.1875 22.589844 C 39.683594 24.082031 39.683594 26.503906 38.1875 28 C 36.691406 29.496094 34.269531 29.496094 32.773438 28 C 31.679688 26.90625 31.351562 25.265625 31.941406 23.835938 L 26.777344 18.675781 L 26.777344 32.261719 C 27.882812 32.808594 28.660156 33.851562 28.859375 35.070312 C 29.058594 36.285156 28.660156 37.523438 27.789062 38.398438 C 26.296875 39.890625 23.871094 39.890625 22.378906 38.398438 C 20.882812 36.902344 20.882812 34.480469 22.378906 32.984375 C 22.734375 32.625 23.160156 32.339844 23.628906 32.148438 L 23.628906 18.4375 C 22.6875 18.050781 21.9375 17.300781 21.550781 16.359375 C 21.160156 15.417969 21.160156 14.359375 21.554688 13.417969 L 15.890625 7.757812 L 0.941406 22.703125 C -0.3125 23.960938 -0.3125 25.996094 0.941406 27.253906 L 22.746094 49.058594 C 24.003906 50.3125 26.039062 50.3125 27.292969 49.058594 L 48.996094 27.355469 C 50.253906 26.097656 50.253906 24.0625 48.996094 22.808594 "/>
</g>
<path style=" stroke:none;fill-rule:evenodd;fill:rgb(100%,100%,100%);fill-opacity:1;" d="M 74.925781 1 C 61.140625 1 50 12 50 25.609375 C 50 36.488281 57.140625 45.695312 67.042969 48.953125 C 68.28125 49.199219 68.734375 48.425781 68.734375 47.773438 C 68.734375 47.203125 68.695312 45.246094 68.695312 43.210938 C 61.761719 44.675781 60.316406 40.277344 60.316406 40.277344 C 59.203125 37.421875 57.550781 36.691406 57.550781 36.691406 C 55.28125 35.183594 57.71875 35.183594 57.71875 35.183594 C 60.234375 35.347656 61.554688 37.710938 61.554688 37.710938 C 63.78125 41.457031 67.375 40.398438 68.816406 39.746094 C 69.023438 38.15625 69.683594 37.058594 70.386719 36.445312 C 64.855469 35.875 59.039062 33.757812 59.039062 24.304688 C 59.039062 21.617188 60.027344 19.414062 61.597656 17.703125 C 61.347656 17.09375 60.480469 14.566406 61.84375 11.183594 C 61.84375 11.183594 63.949219 10.535156 68.695312 13.710938 C 70.726562 13.171875 72.820312 12.898438 74.925781 12.898438 C 77.03125 12.898438 79.175781 13.183594 81.15625 13.710938 C 85.902344 10.535156 88.007812 11.183594 88.007812 11.183594 C 89.371094 14.566406 88.503906 17.09375 88.253906 17.703125 C 89.863281 19.414062 90.8125 21.617188 90.8125 24.304688 C 90.8125 33.757812 84.996094 35.835938 79.421875 36.445312 C 80.332031 37.21875 81.117188 38.6875 81.117188 41.007812 C 81.117188 44.308594 81.074219 46.957031 81.074219 47.773438 C 81.074219 48.425781 81.527344 49.199219 82.765625 48.953125 C 92.671875 45.695312 99.808594 36.488281 99.808594 25.609375 C 99.851562 12 88.667969 1 74.925781 1 Z M 74.925781 1 "/>
</g>
</svg>
