<?xml version="1.0" encoding="UTF-8"?>
<svg xmlns="http://www.w3.org/2000/svg" xmlns:xlink="http://www.w3.org/1999/xlink" width="50px" height="50px" viewBox="0 0 50 50" version="1.1">
<g id="surface1">
<path style=" stroke:none;fill-rule:nonzero;fill:rgb(100%,100%,100%);fill-opacity:1;" d="M 44.886719 32.867188 C 44.886719 32.867188 44.820312 32.464844 44.78125 32.46875 L 37.425781 33.175781 C 36.839844 33.234375 36.386719 33.699219 36.34375 34.285156 L 36.144531 37.183594 L 30.453125 37.585938 L 30.066406 34.964844 C 29.980469 34.378906 29.472656 33.941406 28.882812 33.941406 L 21.117188 33.941406 C 20.527344 33.941406 20.019531 34.378906 19.933594 34.964844 L 19.546875 37.585938 L 13.855469 37.183594 L 13.65625 34.285156 C 13.613281 33.699219 13.160156 33.234375 12.574219 33.175781 L 5.214844 32.46875 C 5.179688 32.464844 5.148438 32.871094 5.113281 32.871094 L 5.101562 34.460938 L 11.332031 35.464844 L 11.539062 38.386719 C 11.578125 38.980469 12.054688 39.457031 12.648438 39.5 L 20.484375 40.058594 C 20.511719 40.058594 20.542969 40.0625 20.570312 40.0625 C 21.160156 40.0625 21.667969 39.621094 21.757812 39.039062 L 22.152344 36.335938 L 27.847656 36.335938 L 28.246094 39.039062 C 28.332031 39.621094 28.839844 40.0625 29.429688 40.0625 C 29.457031 40.0625 29.488281 40.058594 29.515625 40.058594 L 37.351562 39.5 C 37.945312 39.457031 38.421875 38.980469 38.460938 38.386719 L 38.667969 35.464844 L 44.894531 34.457031 Z M 44.886719 32.867188 "/>
<path style=" stroke:none;fill-rule:nonzero;fill:rgb(27.843139%,54.901963%,74.901962%);fill-opacity:1;" d="M 5.113281 20.867188 L 5.113281 32.867188 C 5.132812 32.867188 5.15625 32.871094 5.179688 32.871094 L 12.535156 33.582031 C 12.921875 33.617188 13.222656 33.929688 13.25 34.316406 L 13.476562 37.5625 L 19.894531 38.019531 L 20.335938 35.023438 C 20.394531 34.632812 20.726562 34.347656 21.121094 34.347656 L 28.882812 34.347656 C 29.273438 34.347656 29.605469 34.632812 29.664062 35.023438 L 30.105469 38.019531 L 36.523438 37.5625 L 36.75 34.316406 C 36.777344 33.929688 37.078125 33.617188 37.464844 33.582031 L 44.820312 32.871094 C 44.839844 32.871094 44.863281 32.867188 44.882812 32.867188 L 44.882812 31.910156 L 44.886719 31.910156 L 44.886719 20.867188 L 44.914062 20.867188 C 45.890625 19.625 46.792969 18.3125 47.65625 16.914062 C 46.507812 14.960938 45.101562 13.210938 43.597656 11.59375 C 42.199219 12.296875 40.847656 13.089844 39.566406 13.9375 C 38.925781 13.300781 38.203125 12.78125 37.496094 12.238281 C 36.800781 11.675781 36.015625 11.265625 35.269531 10.789062 C 35.492188 9.140625 35.601562 7.515625 35.644531 5.820312 C 33.726562 4.855469 31.679688 4.214844 29.609375 3.753906 C 28.78125 5.144531 28.023438 6.648438 27.367188 8.121094 C 26.585938 7.988281 25.800781 7.941406 25.015625 7.929688 C 25.011719 7.929688 25.003906 7.929688 25 7.929688 C 24.996094 7.929688 24.988281 7.929688 24.984375 7.929688 C 24.199219 7.941406 23.414062 7.988281 22.632812 8.121094 C 21.976562 6.648438 21.21875 5.144531 20.390625 3.753906 C 18.320312 4.214844 16.273438 4.855469 14.355469 5.820312 C 14.398438 7.515625 14.507812 9.140625 14.730469 10.789062 C 13.984375 11.265625 13.199219 11.675781 12.503906 12.238281 C 11.796875 12.78125 11.074219 13.300781 10.433594 13.9375 C 9.152344 13.089844 7.800781 12.296875 6.402344 11.59375 C 4.898438 13.210938 3.492188 14.960938 2.34375 16.914062 C 3.207031 18.3125 4.109375 19.625 5.085938 20.867188 Z M 5.113281 20.867188 "/>
<path style=" stroke:none;fill-rule:nonzero;fill:rgb(27.843139%,54.901963%,74.901962%);fill-opacity:1;" d="M 38.285156 35.09375 L 38.058594 38.359375 C 38.03125 38.753906 37.714844 39.066406 37.324219 39.09375 L 29.488281 39.652344 C 29.46875 39.652344 29.449219 39.65625 29.429688 39.65625 C 29.039062 39.65625 28.703125 39.367188 28.648438 38.976562 L 28.195312 35.929688 L 21.804688 35.929688 L 21.355469 38.976562 C 21.292969 39.386719 20.925781 39.683594 20.511719 39.652344 L 12.675781 39.09375 C 12.285156 39.066406 11.96875 38.753906 11.941406 38.359375 L 11.714844 35.09375 L 5.101562 34.457031 C 5.101562 35.167969 5.113281 35.945312 5.113281 36.101562 C 5.113281 43.085938 13.976562 46.445312 24.988281 46.484375 L 25.011719 46.484375 C 36.023438 46.445312 44.882812 43.085938 44.882812 36.101562 C 44.882812 35.941406 44.894531 35.167969 44.898438 34.457031 Z M 38.285156 35.09375 "/>
<path style=" stroke:none;fill-rule:nonzero;fill:rgb(100%,100%,100%);fill-opacity:1;" d="M 19.003906 25.738281 C 19.003906 28.1875 17.019531 30.171875 14.570312 30.171875 C 12.125 30.171875 10.136719 28.1875 10.136719 25.738281 C 10.136719 23.292969 12.125 21.308594 14.570312 21.308594 C 17.019531 21.308594 19.003906 23.292969 19.003906 25.738281 "/>
<path style=" stroke:none;fill-rule:nonzero;fill:rgb(25.490198%,25.098041%,25.882354%);fill-opacity:1;" d="M 17.9375 26.003906 C 17.9375 27.628906 16.621094 28.945312 14.996094 28.945312 C 13.371094 28.945312 12.050781 27.628906 12.050781 26.003906 C 12.050781 24.378906 13.371094 23.058594 14.996094 23.058594 C 16.621094 23.058594 17.9375 24.378906 17.9375 26.003906 "/>
<path style=" stroke:none;fill-rule:nonzero;fill:rgb(100%,100%,100%);fill-opacity:1;" d="M 25 30.578125 C 24.210938 30.578125 23.574219 29.996094 23.574219 29.28125 L 23.574219 25.199219 C 23.574219 24.484375 24.210938 23.902344 25 23.902344 C 25.789062 23.902344 26.429688 24.484375 26.429688 25.199219 L 26.429688 29.28125 C 26.429688 29.996094 25.789062 30.578125 25 30.578125 "/>
<path style=" stroke:none;fill-rule:nonzero;fill:rgb(100%,100%,100%);fill-opacity:1;" d="M 30.996094 25.738281 C 30.996094 28.1875 32.980469 30.171875 35.429688 30.171875 C 37.875 30.171875 39.863281 28.1875 39.863281 25.738281 C 39.863281 23.292969 37.875 21.308594 35.429688 21.308594 C 32.980469 21.308594 30.996094 23.292969 30.996094 25.738281 "/>
<path style=" stroke:none;fill-rule:nonzero;fill:rgb(25.490198%,25.098041%,25.882354%);fill-opacity:1;" d="M 32.0625 26.003906 C 32.0625 27.628906 33.378906 28.945312 35.003906 28.945312 C 36.628906 28.945312 37.945312 27.628906 37.945312 26.003906 C 37.945312 24.378906 36.628906 23.058594 35.003906 23.058594 C 33.378906 23.058594 32.0625 24.378906 32.0625 26.003906 "/>
</g>
</svg>
