<svg width="74" height="74" viewBox="0 0 74 74" fill="none" xmlns="http://www.w3.org/2000/svg">
<g clip-path="url(#clip0_8_386)">
<path fill-rule="evenodd" clip-rule="evenodd" d="M38.2993 2.52612C18.7808 1.73869 2.26795 16.7095 1.44013 35.9898C1.45745 36.0111 1.47584 36.0314 1.49525 36.0508C1.46981 36.0948 1.44862 36.1411 1.43197 36.1892C0.715911 55.4739 15.9841 71.6849 35.5048 72.4174C55.0255 73.1498 71.4951 58.1329 72.267 38.8503C73.0389 19.5678 57.8178 3.31356 38.2993 2.52612ZM38.237 4.11244C56.9317 4.86664 71.4371 20.3829 70.7003 38.7863C69.9636 57.1896 54.2587 71.5325 35.562 70.831C16.8652 70.1295 2.31523 54.6545 2.99864 36.2492C2.98613 36.2023 2.96939 36.1566 2.94863 36.1128C2.96855 36.0958 2.98763 36.0779 3.00578 36.059C3.79586 17.6578 19.5424 3.35824 38.237 4.11244Z" fill="white"/>
<path fill-rule="evenodd" clip-rule="evenodd" d="M3.61376 36.0874C3.98665 27.4354 7.83958 19.2824 14.3264 13.419C20.8132 7.55561 29.4036 4.46109 38.211 4.81506C47.0184 5.16904 55.3228 8.94256 61.3004 15.3069C67.2781 21.6713 70.4403 30.1062 70.0925 38.7592C69.7448 47.4123 65.9156 55.576 59.4459 61.4576C52.9761 67.3392 44.3948 70.4578 35.5864 70.1286C26.778 69.7993 18.4627 66.0491 12.4665 59.7016C6.47041 53.354 3.28371 44.928 3.60626 36.2741" fill="#B2B4EA" fill-opacity="0.639344"/>
<path fill-rule="evenodd" clip-rule="evenodd" d="M38.237 4.15377C19.556 3.40297 3.75317 17.6758 2.96087 36.059C2.9874 36.0951 3.0175 36.1283 3.05069 36.1582C3.01542 36.1852 2.98293 36.2156 2.95373 36.2492C2.2684 54.6365 16.8788 70.0913 35.562 70.7897C54.2451 71.488 70.0064 57.1716 70.7452 38.7863C71.4841 20.4009 56.9181 4.90457 38.237 4.15377ZM38.185 5.47553C56.1821 6.19885 70.1491 21.0826 69.4399 38.7325C68.7306 56.3824 53.6101 70.1407 35.6109 69.4679C17.6118 68.7952 3.6012 53.9506 4.25912 36.2988C4.24318 36.2792 4.22614 36.2606 4.20809 36.243C4.23187 36.2028 4.25137 36.1602 4.26626 36.1159C5.02687 18.468 20.1879 4.75222 38.185 5.47553Z" fill="#1B1D65"/>
<path d="M54.1242 62.2286C52.2435 63.6134 39.1592 57.2628 36.825 57.2615C34.4909 57.2601 21.4773 63.5959 19.5812 62.2089C17.6851 60.8219 19.5441 46.327 18.8103 44.0842C18.0765 41.8414 8.01285 31.26 8.72163 29.018C9.43042 26.776 23.6637 24.1683 25.5443 22.7835C27.425 21.3987 34.2189 8.52336 36.553 8.5247C38.8872 8.52603 45.8248 21.4093 47.7209 22.7962C49.6171 24.1832 63.8795 26.8072 64.6133 29.05C65.3472 31.2928 55.4016 41.8628 54.6928 44.1048C53.984 46.3467 56.0048 60.8438 54.1242 62.2286Z" fill="#FBC553"/>
<path d="M9.19521 28.8217C12.6626 34.6558 21.3777 41.712 21.2954 44.6275C21.0507 53.3024 20.854 55.3237 21.3047 59.949C22.1704 60.4345 25.1923 58.9254 28.6278 57.8389C31.7546 56.8501 35.373 55.2778 36.9163 55.3671C40.9076 55.7411 51.3738 61.6035 52.7152 59.942C54.1219 58.1996 53.0959 41.943 54.0168 44.5016L54.7744 53.8725L54.5843 61.1721L54.0306 62.5851L50.2753 62.0723L38.2217 57.7402L35.9548 57.5899L24.2814 61.7758L20.5914 62.2818L18.8898 61.7039L18.7348 57.3376L19.0649 49.466L19.0487 44.1697L16.8436 41.0853L11.3679 33.8395L8.87629 29.6806L9.08571 28.6793L9.19521 28.8217Z" fill="#FB9953"/>
<path d="M37.3434 8.0716C37.1015 7.94305 36.8446 7.86434 36.5498 7.86417C35.9604 7.86383 35.5245 8.17846 35.0615 8.57617C34.5985 8.97387 34.117 9.50524 33.6055 10.1371C32.5825 11.4007 31.4498 13.0643 30.333 14.7666C29.2161 16.4689 28.1168 18.2089 27.1868 19.599C26.7217 20.2941 26.299 20.902 25.9433 21.3674C25.5876 21.8329 25.274 22.1629 25.157 22.2491C25.0401 22.3352 24.6333 22.5355 24.0852 22.7355C23.5372 22.9355 22.8337 23.1576 22.0355 23.3927C20.4389 23.863 18.4606 24.3885 16.5123 24.9432C14.5639 25.4979 12.6473 26.0798 11.1421 26.6778C10.3894 26.9768 9.74027 27.2779 9.22362 27.6015C8.70698 27.9251 8.27724 28.2475 8.09824 28.8137C7.91924 29.3799 8.08334 29.8968 8.31747 30.4668C8.55161 31.0368 8.90657 31.6674 9.34642 32.3577C10.2261 33.7384 11.4491 35.3506 12.7134 36.9597C13.9777 38.5687 15.2826 40.172 16.3096 41.5033C16.8231 42.1689 17.2671 42.7665 17.5976 43.2548C17.928 43.7431 18.1436 44.1487 18.1893 44.2882C18.2349 44.4277 18.3002 44.8817 18.3224 45.4712C18.3445 46.0606 18.3408 46.8063 18.3203 47.6473C18.2792 49.3291 18.1748 51.3947 18.1065 53.4412C18.0383 55.4876 18.0043 57.5122 18.1111 59.1466C18.1645 59.9638 18.2507 60.6823 18.3988 61.2806C18.5469 61.8788 18.7213 62.3929 19.2002 62.7431C19.679 63.0934 20.2153 63.0987 20.823 63.0533C21.4307 63.0079 22.1314 62.8649 22.9148 62.6598C24.4815 62.2495 26.3704 61.583 28.2687 60.8751C30.1669 60.1672 32.0717 59.4181 33.6365 58.8508C34.4189 58.5671 35.1169 58.3288 35.6768 58.1651C36.2367 58.0015 36.6837 57.9222 36.8289 57.9223C36.974 57.9223 37.4216 58.0025 37.9833 58.1668C38.5451 58.3311 39.2456 58.5701 40.0312 58.8547C41.6023 59.4238 43.5162 60.1742 45.4224 60.8842C47.3285 61.5943 49.2238 62.2639 50.7951 62.676C51.5807 62.8821 52.2836 63.0258 52.8917 63.0719C53.4999 63.118 54.0365 63.1134 54.5115 62.7637C54.9864 62.414 55.1543 61.8996 55.2957 61.3015C55.4371 60.7034 55.5149 59.9854 55.5592 59.1682C55.6477 57.5339 55.5922 55.5095 55.5011 53.4629C55.41 51.4164 55.2828 49.3494 55.2229 47.6675C55.193 46.8265 55.1796 46.0817 55.1952 45.4922C55.2108 44.9028 55.272 44.4487 55.3161 44.3093C55.3601 44.1698 55.5716 43.7649 55.8966 43.277C56.2216 42.7891 56.659 42.1914 57.165 41.5264C58.1771 40.1962 59.4635 38.5949 60.7098 36.9873C61.9561 35.3797 63.161 33.7689 64.0253 32.3892C64.4575 31.6993 64.806 31.0695 65.0338 30.4997C65.2616 29.93 65.4195 29.4128 65.2342 28.8464C65.0489 28.28 64.6157 27.9572 64.0954 27.6329C63.5751 27.3087 62.9227 27.0064 62.1667 26.7066C60.6547 26.1068 58.7315 25.5234 56.7769 24.9664C54.8224 24.4094 52.8385 23.881 51.2367 23.4089C50.4358 23.1728 49.7299 22.9504 49.1796 22.7498C48.6293 22.5491 48.2206 22.3486 48.1027 22.2623C47.9848 22.1761 47.6678 21.8456 47.3069 21.3798C46.946 20.9139 46.5152 20.3048 46.0424 19.6092C45.0968 18.218 43.9793 16.4778 42.8434 14.7742C41.7076 13.0707 40.5557 11.4056 39.5186 10.1407C39 9.50832 38.5126 8.97525 38.0452 8.57702C37.8115 8.3779 37.5852 8.20014 37.3434 8.0716ZM36.5561 9.18553C36.5502 9.18551 36.8398 9.27325 37.2059 9.58524C37.5721 9.89723 38.0235 10.3826 38.5132 10.9799C39.4927 12.1744 40.6325 13.8172 41.7598 15.5079C42.8871 17.1987 44.005 18.9383 44.9664 20.3528C45.4471 21.0601 45.8877 21.6856 46.2783 22.1898C46.6688 22.6939 46.9838 23.0697 47.3399 23.3302C47.696 23.5907 48.1472 23.7756 48.7427 23.9927C49.3382 24.2098 50.063 24.4367 50.8773 24.6767C52.5059 25.1568 54.489 25.6854 56.4288 26.2382C58.3686 26.791 60.2674 27.3697 61.6953 27.9361C62.4092 28.2193 63.0057 28.5017 63.4133 28.7557C63.8209 29.0097 63.995 29.2592 63.9931 29.2535C63.9912 29.2478 63.9987 29.5517 63.8202 29.9981C63.6418 30.4444 63.3276 31.0264 62.9194 31.6779C62.1032 32.9809 60.9152 34.5724 59.6783 36.1679C58.4414 37.7634 57.1547 39.3652 56.1256 40.7176C55.6111 41.3938 55.1614 42.0067 54.8097 42.5347C54.458 43.0628 54.2029 43.4794 54.0697 43.9005C53.9366 44.3215 53.905 44.8101 53.8881 45.448C53.8712 46.0859 53.8856 46.8528 53.916 47.7079C53.9769 49.418 54.1038 51.4822 54.1942 53.5133C54.2847 55.5444 54.3374 57.5441 54.2538 59.0875C54.212 59.8592 54.1341 60.5189 54.0233 60.9875C53.9125 61.456 53.7323 61.6978 53.7372 61.6943C53.742 61.6908 53.4583 61.7905 52.9819 61.7544C52.5054 61.7182 51.8586 61.5924 51.1166 61.3978C49.6327 61.0086 47.7593 60.3497 45.8675 59.6451C43.9757 58.9404 42.0637 58.1897 40.4663 57.611C39.6675 57.3216 38.948 57.0756 38.3401 56.8978C37.7322 56.7199 37.2601 56.6007 36.8217 56.6005C36.3833 56.6002 35.9124 56.7193 35.3065 56.8964C34.7005 57.0735 33.9841 57.3191 33.1886 57.6075C31.5976 58.1844 29.6924 58.9326 27.8084 59.6351C25.9245 60.3376 24.0588 60.9939 22.5792 61.3814C21.8394 61.5752 21.1941 61.7003 20.718 61.7359C20.242 61.7715 19.9572 61.6714 19.9621 61.6749C19.967 61.6782 19.7846 61.4363 19.6686 60.9677C19.5526 60.499 19.4666 59.8398 19.4162 59.068C19.3153 57.5244 19.3454 55.5249 19.4132 53.4939C19.4809 51.4629 19.5859 49.3984 19.6277 47.6883C19.6486 46.8333 19.6541 46.0668 19.6301 45.4289C19.6061 44.791 19.5686 44.3015 19.4308 43.8802C19.2929 43.459 19.0341 43.043 18.6765 42.5146C18.3189 41.9862 17.8617 41.3718 17.3396 40.695C16.2954 39.3414 14.9915 37.7387 13.7367 36.1418C12.482 34.5449 11.2758 32.9512 10.445 31.6473C10.0296 30.9953 9.70932 30.4137 9.52589 29.9671C9.34247 29.5206 9.34641 29.2168 9.3446 29.2225C9.34279 29.2282 9.51305 28.9784 9.9178 28.7249C10.3225 28.4714 10.9165 28.1905 11.6273 27.9081C13.0488 27.3433 14.9411 26.7656 16.8748 26.215C18.8084 25.6645 20.7852 25.1386 22.4085 24.6605C23.2201 24.4214 23.9432 24.1955 24.5363 23.9791C25.1294 23.7626 25.5782 23.5786 25.9314 23.3185C26.2846 23.0584 26.5957 22.6822 26.9806 22.1785C27.3655 21.6748 27.7997 21.0507 28.2725 20.344C29.2182 18.9306 30.3159 17.1905 31.4244 15.501C32.5328 13.8116 33.6541 12.1709 34.6202 10.9775C35.1033 10.3808 35.5499 9.89613 35.9126 9.58456C36.2753 9.27299 36.5621 9.18553 36.5561 9.18553Z" fill="#0B013C"/>
<path fill-rule="evenodd" clip-rule="evenodd" d="M29.5314 34.7391C29.5558 34.1503 29.8071 33.5951 30.2305 33.1945C30.654 32.794 31.2153 32.5804 31.7922 32.6003C32.3692 32.6203 32.915 32.8721 33.311 33.301C33.7069 33.7299 33.9208 34.3011 33.9062 34.8903C33.8916 35.4795 33.6495 36.0389 33.2328 36.4467C32.816 36.8546 32.2584 37.0778 31.6812 37.0679C31.104 37.0579 30.554 36.8155 30.151 36.3935C29.748 35.9716 29.5246 35.4041 29.5295 34.8148" fill="#0B013C"/>
<path fill-rule="evenodd" clip-rule="evenodd" d="M39.7975 34.8826C39.8219 34.2938 40.0732 33.7387 40.4966 33.3381C40.9201 32.9375 41.4814 32.724 42.0583 32.7439C42.6353 32.7638 43.1812 33.0157 43.5771 33.4446C43.973 33.8735 44.187 34.4447 44.1723 35.0339C44.1577 35.623 43.9156 36.1824 43.4989 36.5903C43.0822 36.9981 42.5245 37.2214 41.9473 37.2114C41.3701 37.2014 40.8201 36.9591 40.4171 36.5371C40.0141 36.1151 39.7907 35.5477 39.7956 34.9583" fill="#0B013C"/>
<path fill-rule="evenodd" clip-rule="evenodd" d="M36.8669 42.3568C38.8059 42.3641 40.373 40.6942 40.4183 38.6564C40.4199 38.5868 40.408 38.5176 40.3831 38.4527C40.3583 38.3877 40.321 38.3284 40.2735 38.2781C40.226 38.2277 40.1692 38.1874 40.1063 38.1593C40.0434 38.1312 39.9756 38.116 39.9069 38.1144C39.8383 38.1129 39.7701 38.125 39.7061 38.1502C39.6421 38.1754 39.5837 38.213 39.5342 38.2611C39.4846 38.3091 39.4449 38.3666 39.4173 38.4302C39.3897 38.4938 39.3748 38.5623 39.3733 38.6318C39.3398 40.1401 38.2125 41.303 36.8694 41.2981C35.5262 41.2931 34.4177 40.1253 34.4024 38.6169C34.4018 38.5473 34.3876 38.4785 34.3607 38.4145C34.3338 38.3504 34.2947 38.2924 34.2456 38.2437C34.1965 38.1949 34.1385 38.1564 34.0747 38.1304C34.011 38.1045 33.9428 38.0914 33.8741 38.0921C33.8054 38.0927 33.7375 38.107 33.6743 38.1342C33.6111 38.1614 33.5538 38.2009 33.5057 38.2506C33.4576 38.3002 33.4197 38.359 33.394 38.4235C33.3684 38.488 33.3556 38.5571 33.3564 38.6266C33.3771 40.6648 34.9279 42.3496 36.8669 42.3568Z" fill="#0B013C"/>
<path fill-rule="evenodd" clip-rule="evenodd" d="M58.6274 21.5878C60.3108 20.4707 60.5119 17.36 58.037 14.8362C56.4434 13.211 54.6254 11.7652 52.5859 10.5878C52.158 10.3469 51.7259 10.121 51.2904 9.90943C50.3097 9.43309 49.3149 9.22069 48.4177 9.22527C47.4435 9.22351 46.656 9.4945 46.06 9.89777C45.4658 10.2998 45.0101 10.8691 44.7992 11.5396C44.3451 12.9833 45.1551 14.3401 46.2806 15.4681C46.7937 15.967 47.3953 16.3891 48.0701 16.7158C48.371 16.8614 48.6645 17.0151 48.9496 17.1775C50.3185 17.9284 51.578 18.9441 52.7253 20.1356C54.3196 21.7913 56.9127 22.7257 58.6274 21.5878Z" fill="#FEFAF1"/>
<path fill-rule="evenodd" clip-rule="evenodd" d="M12.2612 48.9476C10.3125 49.7661 9.52691 52.8979 11.6182 55.9403C12.9648 57.8995 14.5768 59.7185 16.4677 61.3059C16.8656 61.6328 17.2706 61.9452 17.6818 62.2435C18.6077 62.9154 19.5972 63.3209 20.5261 63.4868C21.5334 63.6737 22.3983 63.5472 23.0897 63.2495C23.7789 62.9527 24.356 62.4593 24.6987 61.816C25.4364 60.431 24.8505 58.8944 23.8958 57.531C23.4577 56.925 22.9138 56.3805 22.2765 55.9194C21.9923 55.7137 21.7172 55.5013 21.4525 55.2816C20.176 54.2562 19.0619 52.9817 18.0964 51.5494C16.7547 49.559 14.246 48.114 12.2612 48.9476Z" fill="#FEFAF1"/>
<path fill-rule="evenodd" clip-rule="evenodd" d="M58.9881 27.9836C58.4951 27.0493 58.3401 25.9865 58.5569 25.0286C58.7738 24.0708 59.3448 23.2962 60.1446 22.875C60.9445 22.4537 61.9077 22.4203 62.8228 22.782C63.7379 23.1437 64.53 23.871 65.0253 24.8041C65.5205 25.7372 65.6783 26.7999 65.4641 27.7588C65.2498 28.7177 64.6811 29.4943 63.8826 29.9182C63.0842 30.3421 62.1214 30.3786 61.2057 30.0196C60.29 29.6607 59.4963 28.9356 58.9988 28.0037" fill="#FEFAF1"/>
</g>
<defs>
<clipPath id="clip0_8_386">
<rect width="74" height="74" fill="white"/>
</clipPath>
</defs>
</svg>
