<?xml version="1.0" encoding="UTF-8"?>
<svg xmlns="http://www.w3.org/2000/svg" xmlns:xlink="http://www.w3.org/1999/xlink" width="60px" height="50px" viewBox="0 0 59 50" version="1.1">
<g id="surface1">
<path style=" stroke:none;fill-rule:nonzero;fill:rgb(4.313726%,23.921569%,56.862748%);fill-opacity:1;" d="M 48.375 24.457031 C 48.375 12.410156 38.734375 2.640625 26.84375 2.640625 C 14.953125 2.640625 5.316406 12.410156 5.316406 24.457031 C 5.316406 36.503906 14.953125 46.273438 26.84375 46.273438 C 38.734375 46.273438 48.375 36.503906 48.375 24.457031 Z M 48.375 24.457031 "/>
<path style=" stroke:none;fill-rule:nonzero;fill:rgb(100%,100%,100%);fill-opacity:1;" d="M 25.816406 6.832031 C 25.816406 6.695312 25.707031 6.585938 25.574219 6.585938 C 25.441406 6.585938 25.332031 6.695312 25.332031 6.832031 C 25.332031 6.964844 25.441406 7.074219 25.574219 7.074219 C 25.707031 7.074219 25.816406 6.964844 25.816406 6.832031 Z M 25.816406 6.832031 "/>
<path style=" stroke:none;fill-rule:nonzero;fill:rgb(100%,100%,100%);fill-opacity:1;" d="M 28.292969 7.15625 C 28.292969 7.023438 28.183594 6.914062 28.050781 6.914062 C 27.917969 6.914062 27.808594 7.023438 27.808594 7.15625 C 27.808594 7.292969 27.917969 7.402344 28.050781 7.402344 C 28.183594 7.402344 28.292969 7.292969 28.292969 7.15625 Z M 28.292969 7.15625 "/>
<path style=" stroke:none;fill-rule:nonzero;fill:rgb(100%,100%,100%);fill-opacity:1;" d="M 31.542969 11.59375 C 31.542969 11.457031 31.433594 11.347656 31.300781 11.347656 C 31.167969 11.347656 31.058594 11.457031 31.058594 11.59375 C 31.058594 11.726562 31.167969 11.835938 31.300781 11.835938 C 31.433594 11.835938 31.542969 11.726562 31.542969 11.59375 Z M 31.542969 11.59375 "/>
<path style=" stroke:none;fill-rule:nonzero;fill:rgb(100%,100%,100%);fill-opacity:1;" d="M 13.714844 34.417969 C 13.714844 34.285156 13.605469 34.175781 13.472656 34.175781 C 13.339844 34.175781 13.230469 34.285156 13.230469 34.417969 C 13.230469 34.554688 13.339844 34.664062 13.472656 34.664062 C 13.605469 34.664062 13.714844 34.554688 13.714844 34.417969 Z M 13.714844 34.417969 "/>
<path style=" stroke:none;fill-rule:nonzero;fill:rgb(100%,100%,100%);fill-opacity:1;" d="M 14.34375 36.375 C 14.34375 36.238281 14.234375 36.128906 14.101562 36.128906 C 13.96875 36.128906 13.859375 36.238281 13.859375 36.375 C 13.859375 36.511719 13.96875 36.621094 14.101562 36.621094 C 14.234375 36.621094 14.34375 36.511719 14.34375 36.375 Z M 14.34375 36.375 "/>
<path style=" stroke:none;fill-rule:nonzero;fill:rgb(100%,100%,100%);fill-opacity:1;" d="M 11.289062 34.710938 C 11.289062 34.609375 11.207031 34.527344 11.109375 34.527344 C 11.007812 34.527344 10.925781 34.609375 10.925781 34.710938 C 10.925781 34.8125 11.007812 34.894531 11.109375 34.894531 C 11.207031 34.894531 11.289062 34.8125 11.289062 34.710938 Z M 11.289062 34.710938 "/>
<path style=" stroke:none;fill-rule:nonzero;fill:rgb(100%,100%,100%);fill-opacity:1;" d="M 21.105469 38.554688 C 21.105469 38.453125 21.023438 38.371094 20.921875 38.371094 C 20.824219 38.371094 20.742188 38.453125 20.742188 38.554688 C 20.742188 38.65625 20.824219 38.738281 20.921875 38.738281 C 21.023438 38.738281 21.105469 38.65625 21.105469 38.554688 Z M 21.105469 38.554688 "/>
<path style=" stroke:none;fill-rule:nonzero;fill:rgb(100%,100%,100%);fill-opacity:1;" d="M 36.5 35.316406 C 36.5 35.214844 36.417969 35.132812 36.316406 35.132812 C 36.21875 35.132812 36.136719 35.214844 36.136719 35.316406 C 36.136719 35.417969 36.21875 35.5 36.316406 35.5 C 36.417969 35.5 36.5 35.417969 36.5 35.316406 Z M 36.5 35.316406 "/>
<path style=" stroke:none;fill-rule:nonzero;fill:rgb(100%,100%,100%);fill-opacity:1;" d="M 40.972656 30.390625 C 40.972656 30.289062 40.890625 30.207031 40.792969 30.207031 C 40.691406 30.207031 40.609375 30.289062 40.609375 30.390625 C 40.609375 30.492188 40.691406 30.574219 40.792969 30.574219 C 40.890625 30.574219 40.972656 30.492188 40.972656 30.390625 Z M 40.972656 30.390625 "/>
<path style=" stroke:none;fill-rule:nonzero;fill:rgb(100%,100%,100%);fill-opacity:1;" d="M 19.042969 13.023438 C 19.042969 12.921875 18.964844 12.839844 18.863281 12.839844 C 18.761719 12.839844 18.683594 12.921875 18.683594 13.023438 C 18.683594 13.125 18.761719 13.207031 18.863281 13.207031 C 18.964844 13.207031 19.042969 13.125 19.042969 13.023438 Z M 19.042969 13.023438 "/>
<path style=" stroke:none;fill-rule:nonzero;fill:rgb(100%,100%,100%);fill-opacity:1;" d="M 23.96875 9.359375 C 23.96875 9.257812 23.886719 9.175781 23.789062 9.175781 C 23.6875 9.175781 23.605469 9.257812 23.605469 9.359375 C 23.605469 9.460938 23.6875 9.542969 23.789062 9.542969 C 23.886719 9.542969 23.96875 9.460938 23.96875 9.359375 Z M 23.96875 9.359375 "/>
<path style=" stroke:none;fill-rule:nonzero;fill:rgb(100%,100%,100%);fill-opacity:1;" d="M 23.433594 9 C 23.433594 8.898438 23.351562 8.816406 23.253906 8.816406 C 23.152344 8.816406 23.070312 8.898438 23.070312 9 C 23.070312 9.101562 23.152344 9.183594 23.253906 9.183594 C 23.351562 9.183594 23.433594 9.101562 23.433594 9 Z M 23.433594 9 "/>
<path style=" stroke:none;fill-rule:nonzero;fill:rgb(100%,100%,100%);fill-opacity:1;" d="M 22.949219 8.640625 C 22.949219 8.539062 22.871094 8.457031 22.769531 8.457031 C 22.667969 8.457031 22.589844 8.539062 22.589844 8.640625 C 22.589844 8.742188 22.667969 8.824219 22.769531 8.824219 C 22.871094 8.824219 22.949219 8.742188 22.949219 8.640625 Z M 22.949219 8.640625 "/>
<path style=" stroke:none;fill-rule:nonzero;fill:rgb(100%,100%,100%);fill-opacity:1;" d="M 19.816406 13.96875 C 19.816406 13.867188 19.734375 13.785156 19.636719 13.785156 C 19.535156 13.785156 19.453125 13.867188 19.453125 13.96875 C 19.453125 14.070312 19.535156 14.152344 19.636719 14.152344 C 19.734375 14.152344 19.816406 14.070312 19.816406 13.96875 Z M 19.816406 13.96875 "/>
<path style=" stroke:none;fill-rule:nonzero;fill:rgb(100%,100%,100%);fill-opacity:1;" d="M 27.070312 4.433594 C 27.070312 4.332031 26.988281 4.25 26.886719 4.25 C 26.789062 4.25 26.707031 4.332031 26.707031 4.433594 C 26.707031 4.535156 26.789062 4.617188 26.886719 4.617188 C 26.988281 4.617188 27.070312 4.535156 27.070312 4.433594 Z M 27.070312 4.433594 "/>
<path style=" stroke:none;fill-rule:nonzero;fill:rgb(100%,100%,100%);fill-opacity:1;" d="M 28.261719 9.71875 C 28.261719 9.617188 28.179688 9.535156 28.078125 9.535156 C 27.980469 9.535156 27.898438 9.617188 27.898438 9.71875 C 27.898438 9.820312 27.980469 9.902344 28.078125 9.902344 C 28.179688 9.902344 28.261719 9.820312 28.261719 9.71875 Z M 28.261719 9.71875 "/>
<path style=" stroke:none;fill-rule:nonzero;fill:rgb(100%,100%,100%);fill-opacity:1;" d="M 26.382812 8.6875 C 26.382812 8.585938 26.300781 8.503906 26.199219 8.503906 C 26.101562 8.503906 26.019531 8.585938 26.019531 8.6875 C 26.019531 8.785156 26.101562 8.867188 26.199219 8.867188 C 26.300781 8.867188 26.382812 8.785156 26.382812 8.6875 Z M 26.382812 8.6875 "/>
<path style=" stroke:none;fill-rule:nonzero;fill:rgb(100%,100%,100%);fill-opacity:1;" d="M 23.164062 10.089844 C 23.164062 9.988281 23.082031 9.90625 22.984375 9.90625 C 22.882812 9.90625 22.800781 9.988281 22.800781 10.089844 C 22.800781 10.191406 22.882812 10.273438 22.984375 10.273438 C 23.082031 10.273438 23.164062 10.191406 23.164062 10.089844 Z M 23.164062 10.089844 "/>
<path style=" stroke:none;fill-rule:nonzero;fill:rgb(100%,100%,100%);fill-opacity:1;" d="M 37.355469 40.152344 C 37.355469 40.050781 37.273438 39.96875 37.175781 39.96875 C 37.074219 39.96875 36.992188 40.050781 36.992188 40.152344 C 36.992188 40.253906 37.074219 40.335938 37.175781 40.335938 C 37.273438 40.335938 37.355469 40.253906 37.355469 40.152344 Z M 37.355469 40.152344 "/>
<path style=" stroke:none;fill-rule:nonzero;fill:rgb(100%,100%,100%);fill-opacity:1;" d="M 13.347656 35.65625 C 13.347656 35.554688 13.265625 35.472656 13.167969 35.472656 C 13.066406 35.472656 12.984375 35.554688 12.984375 35.65625 C 12.984375 35.757812 13.066406 35.839844 13.167969 35.839844 C 13.265625 35.839844 13.347656 35.757812 13.347656 35.65625 Z M 13.347656 35.65625 "/>
<path style=" stroke:none;fill-rule:nonzero;fill:rgb(100%,100%,100%);fill-opacity:1;" d="M 25.929688 38.023438 C 25.929688 37.921875 25.851562 37.839844 25.75 37.839844 C 25.648438 37.839844 25.570312 37.921875 25.570312 38.023438 C 25.570312 38.125 25.648438 38.207031 25.75 38.207031 C 25.851562 38.207031 25.929688 38.125 25.929688 38.023438 Z M 25.929688 38.023438 "/>
<path style=" stroke:none;fill-rule:nonzero;fill:rgb(100%,100%,100%);fill-opacity:1;" d="M 17.09375 35.511719 C 17.09375 35.410156 17.011719 35.328125 16.910156 35.328125 C 16.8125 35.328125 16.730469 35.410156 16.730469 35.511719 C 16.730469 35.613281 16.8125 35.695312 16.910156 35.695312 C 17.011719 35.695312 17.09375 35.613281 17.09375 35.511719 Z M 17.09375 35.511719 "/>
<path style=" stroke:none;fill-rule:nonzero;fill:rgb(100%,100%,100%);fill-opacity:1;" d="M 18.660156 38.097656 C 18.660156 37.996094 18.578125 37.914062 18.476562 37.914062 C 18.378906 37.914062 18.296875 37.996094 18.296875 38.097656 C 18.296875 38.199219 18.378906 38.28125 18.476562 38.28125 C 18.578125 38.28125 18.660156 38.199219 18.660156 38.097656 Z M 18.660156 38.097656 "/>
<path style=" stroke:none;fill-rule:nonzero;fill:rgb(100%,100%,100%);fill-opacity:1;" d="M 30.179688 36.46875 C 30.179688 36.367188 30.097656 36.285156 30 36.285156 C 29.898438 36.285156 29.816406 36.367188 29.816406 36.46875 C 29.816406 36.570312 29.898438 36.652344 30 36.652344 C 30.097656 36.652344 30.179688 36.570312 30.179688 36.46875 Z M 30.179688 36.46875 "/>
<path style=" stroke:none;fill-rule:nonzero;fill:rgb(100%,100%,100%);fill-opacity:1;" d="M 36.53125 32.835938 C 36.53125 32.734375 36.449219 32.652344 36.351562 32.652344 C 36.25 32.652344 36.167969 32.734375 36.167969 32.835938 C 36.167969 32.9375 36.25 33.019531 36.351562 33.019531 C 36.449219 33.019531 36.53125 32.9375 36.53125 32.835938 Z M 36.53125 32.835938 "/>
<path style=" stroke:none;fill-rule:nonzero;fill:rgb(100%,100%,100%);fill-opacity:1;" d="M 41.347656 35.066406 C 41.347656 34.964844 41.265625 34.882812 41.164062 34.882812 C 41.066406 34.882812 40.984375 34.964844 40.984375 35.066406 C 40.984375 35.167969 41.066406 35.25 41.164062 35.25 C 41.265625 35.25 41.347656 35.167969 41.347656 35.066406 Z M 41.347656 35.066406 "/>
<path style=" stroke:none;fill-rule:nonzero;fill:rgb(100%,100%,100%);fill-opacity:1;" d="M 42.988281 36.128906 C 42.988281 36.027344 42.90625 35.949219 42.808594 35.949219 C 42.707031 35.949219 42.625 36.027344 42.625 36.128906 C 42.625 36.230469 42.707031 36.3125 42.808594 36.3125 C 42.90625 36.3125 42.988281 36.230469 42.988281 36.128906 Z M 42.988281 36.128906 "/>
<path style=" stroke:none;fill-rule:nonzero;fill:rgb(100%,100%,100%);fill-opacity:1;" d="M 43.257812 33.226562 C 43.257812 33.128906 43.175781 33.046875 43.078125 33.046875 C 42.976562 33.046875 42.894531 33.128906 42.894531 33.226562 C 42.894531 33.328125 42.976562 33.410156 43.078125 33.410156 C 43.175781 33.410156 43.257812 33.328125 43.257812 33.226562 Z M 43.257812 33.226562 "/>
<path style=" stroke:none;fill-rule:nonzero;fill:rgb(100%,100%,100%);fill-opacity:1;" d="M 19.3125 29.121094 C 19.3125 29.019531 19.234375 28.9375 19.132812 28.9375 C 19.03125 28.9375 18.953125 29.019531 18.953125 29.121094 C 18.953125 29.222656 19.03125 29.300781 19.132812 29.300781 C 19.234375 29.300781 19.3125 29.222656 19.3125 29.121094 Z M 19.3125 29.121094 "/>
<path style=" stroke:none;fill-rule:nonzero;fill:rgb(100%,100%,100%);fill-opacity:1;" d="M 19.441406 33.324219 C 19.441406 33.191406 19.335938 33.082031 19.203125 33.082031 C 19.066406 33.082031 18.960938 33.191406 18.960938 33.324219 C 18.960938 33.460938 19.066406 33.570312 19.203125 33.570312 C 19.335938 33.570312 19.441406 33.460938 19.441406 33.324219 Z M 19.441406 33.324219 "/>
<path style=" stroke:none;fill-rule:nonzero;fill:rgb(100%,100%,100%);fill-opacity:1;" d="M 20.890625 36.425781 C 20.890625 36.289062 20.78125 36.179688 20.648438 36.179688 C 20.515625 36.179688 20.40625 36.289062 20.40625 36.425781 C 20.40625 36.558594 20.515625 36.667969 20.648438 36.667969 C 20.78125 36.667969 20.890625 36.558594 20.890625 36.425781 Z M 20.890625 36.425781 "/>
<path style=" stroke:none;fill-rule:nonzero;fill:rgb(100%,100%,100%);fill-opacity:1;" d="M 38.238281 33.195312 C 38.238281 33.0625 38.128906 32.949219 37.996094 32.949219 C 37.863281 32.949219 37.753906 33.0625 37.753906 33.195312 C 37.753906 33.332031 37.863281 33.441406 37.996094 33.441406 C 38.128906 33.441406 38.238281 33.332031 38.238281 33.195312 Z M 38.238281 33.195312 "/>
<path style=" stroke:none;fill-rule:nonzero;fill:rgb(100%,100%,100%);fill-opacity:1;" d="M 44.480469 32.835938 C 44.480469 32.703125 44.371094 32.59375 44.238281 32.59375 C 44.105469 32.59375 43.996094 32.703125 43.996094 32.835938 C 43.996094 32.972656 44.105469 33.082031 44.238281 33.082031 C 44.371094 33.082031 44.480469 32.972656 44.480469 32.835938 Z M 44.480469 32.835938 "/>
<path style=" stroke:none;fill-rule:nonzero;fill:rgb(100%,100%,100%);fill-opacity:1;" d="M 41.390625 31.5 C 41.390625 31.363281 41.28125 31.253906 41.148438 31.253906 C 41.015625 31.253906 40.90625 31.363281 40.90625 31.5 C 40.90625 31.636719 41.015625 31.746094 41.148438 31.746094 C 41.28125 31.746094 41.390625 31.636719 41.390625 31.5 Z M 41.390625 31.5 "/>
<path style=" stroke:none;fill-rule:nonzero;fill:rgb(100%,100%,100%);fill-opacity:1;" d="M 38.238281 31.628906 C 38.238281 31.496094 38.128906 31.386719 37.996094 31.386719 C 37.863281 31.386719 37.753906 31.496094 37.753906 31.628906 C 37.753906 31.765625 37.863281 31.875 37.996094 31.875 C 38.128906 31.875 38.238281 31.765625 38.238281 31.628906 Z M 38.238281 31.628906 "/>
<path style=" stroke:none;fill-rule:nonzero;fill:rgb(100%,100%,100%);fill-opacity:1;" d="M 31.488281 6.679688 L 32.089844 6.621094 L 31.492188 6.585938 C 31.472656 6.46875 31.378906 6.375 31.261719 6.363281 L 31.207031 5.757812 L 31.171875 6.367188 C 31.0625 6.390625 30.980469 6.484375 30.964844 6.597656 L 30.351562 6.652344 L 30.96875 6.6875 C 30.992188 6.792969 31.078125 6.875 31.179688 6.894531 L 31.238281 7.515625 L 31.269531 6.894531 C 31.382812 6.875 31.46875 6.789062 31.488281 6.679688 Z M 31.488281 6.679688 "/>
<path style=" stroke:none;fill-rule:nonzero;fill:rgb(100%,100%,100%);fill-opacity:1;" d="M 21.359375 13.449219 L 21.960938 13.390625 L 21.359375 13.355469 C 21.34375 13.238281 21.25 13.148438 21.132812 13.132812 L 21.074219 12.527344 L 21.042969 13.136719 C 20.933594 13.160156 20.847656 13.253906 20.835938 13.367188 L 20.222656 13.425781 L 20.839844 13.457031 C 20.863281 13.5625 20.945312 13.644531 21.050781 13.664062 L 21.109375 14.289062 L 21.140625 13.664062 C 21.25 13.648438 21.339844 13.558594 21.359375 13.449219 Z M 21.359375 13.449219 "/>
<path style=" stroke:none;fill-rule:nonzero;fill:rgb(100%,100%,100%);fill-opacity:1;" d="M 43.800781 31.351562 L 44.398438 31.292969 L 43.800781 31.257812 C 43.78125 31.140625 43.6875 31.046875 43.570312 31.03125 L 43.515625 30.425781 L 43.480469 31.039062 C 43.371094 31.0625 43.289062 31.15625 43.277344 31.269531 L 42.660156 31.324219 L 43.28125 31.359375 C 43.300781 31.464844 43.386719 31.546875 43.492188 31.566406 L 43.546875 32.1875 L 43.582031 31.566406 C 43.691406 31.546875 43.777344 31.460938 43.800781 31.351562 Z M 43.800781 31.351562 "/>
<path style=" stroke:none;fill-rule:nonzero;fill:rgb(100%,100%,100%);fill-opacity:1;" d="M 19.332031 40.710938 L 19.933594 40.652344 L 19.332031 40.617188 C 19.316406 40.5 19.222656 40.40625 19.105469 40.394531 L 19.046875 39.789062 L 19.015625 40.398438 C 18.90625 40.421875 18.820312 40.515625 18.808594 40.628906 L 18.195312 40.683594 L 18.8125 40.71875 C 18.835938 40.824219 18.917969 40.90625 19.023438 40.925781 L 19.078125 41.550781 L 19.113281 40.925781 C 19.222656 40.90625 19.3125 40.820312 19.332031 40.710938 Z M 19.332031 40.710938 "/>
<path style=" stroke:none;fill-rule:nonzero;fill:rgb(100%,100%,100%);fill-opacity:1;" d="M 41.890625 36.144531 L 42.492188 36.085938 L 41.894531 36.050781 C 41.875 35.933594 41.78125 35.84375 41.664062 35.828125 L 41.605469 35.222656 L 41.574219 35.832031 C 41.464844 35.855469 41.382812 35.949219 41.367188 36.0625 L 40.753906 36.117188 L 41.371094 36.152344 C 41.394531 36.257812 41.480469 36.339844 41.585938 36.359375 L 41.640625 36.984375 L 41.671875 36.359375 C 41.785156 36.34375 41.871094 36.253906 41.890625 36.144531 Z M 41.890625 36.144531 "/>
<path style=" stroke:none;fill-rule:nonzero;fill:rgb(98.823529%,23.921569%,12.941177%);fill-opacity:1;" d="M 31.949219 19.230469 C 29.445312 20.21875 27.003906 21.097656 24.945312 21.75 C 20.757812 23.078125 9.304688 26.675781 2.386719 31.207031 L 2.964844 31.433594 C 7.179688 29.023438 9.921875 28.261719 12.554688 27.425781 C 15.417969 26.511719 24.679688 24.316406 28.871094 23.121094 C 30.289062 22.714844 31.945312 22.1875 33.703125 21.542969 C 33.296875 20.964844 32.863281 20.386719 32.410156 19.808594 C 32.257812 19.613281 32.105469 19.421875 31.949219 19.230469 Z M 35.007812 23.503906 C 34.402344 23.917969 33.894531 24.246094 33.539062 24.457031 C 31.480469 25.664062 21.4375 32.609375 19.152344 34.207031 C 16.871094 35.804688 10.527344 41.871094 8.664062 43.628906 L 8.597656 44.347656 C 14.617188 38.867188 16.503906 37.519531 18.894531 35.675781 C 21.855469 33.390625 27.980469 29.167969 30.0625 27.816406 C 32.054688 26.523438 33.847656 25.332031 35.457031 24.242188 C 35.433594 24.199219 35.40625 24.15625 35.378906 24.109375 C 35.257812 23.90625 35.132812 23.707031 35.007812 23.503906 Z M 44.414062 13.433594 C 41.484375 15.175781 36.863281 17.277344 32.378906 19.0625 C 32.488281 19.195312 32.59375 19.328125 32.699219 19.464844 C 33.203125 20.101562 33.675781 20.746094 34.117188 21.390625 C 37.640625 20.074219 41.507812 18.308594 44.578125 16.171875 C 43.117188 17.578125 38.285156 21.234375 35.335938 23.277344 C 35.488281 23.527344 35.636719 23.777344 35.777344 24.027344 C 40.242188 21 43.246094 18.773438 44.996094 17.28125 C 47.410156 15.226562 52.914062 10.628906 55.003906 4.46875 C 51.335938 9.195312 46.996094 11.902344 44.414062 13.433594 Z M 44.414062 13.433594 "/>
<path style=" stroke:none;fill-rule:nonzero;fill:rgb(100%,100%,100%);fill-opacity:1;" d="M 24.074219 29.859375 C 23.597656 29.253906 22.941406 28.441406 22.449219 27.8125 C 21.789062 26.972656 21.179688 26.121094 20.621094 25.273438 C 20.441406 25.320312 20.257812 25.367188 20.074219 25.414062 C 20.75 26.480469 21.5 27.546875 22.316406 28.585938 C 22.914062 29.347656 23.457031 29.960938 23.734375 30.339844 C 23.789062 30.417969 23.902344 30.589844 24.050781 30.816406 C 24.226562 30.695312 24.402344 30.574219 24.578125 30.453125 C 24.40625 30.265625 24.238281 30.066406 24.074219 29.859375 Z M 27.539062 33.046875 C 27.148438 32.671875 26.203125 32.046875 25.21875 31.109375 C 25.003906 31.261719 24.78125 31.414062 24.5625 31.570312 C 25.199219 32.476562 26.0625 33.589844 26.742188 33.914062 C 27.761719 34.40625 28.039062 33.523438 27.539062 33.046875 Z M 32.699219 19.464844 C 27.074219 12.285156 20.199219 8.34375 17.234375 10.730469 C 14.933594 12.582031 15.878906 18 19.050781 23.6875 C 19.214844 23.632812 19.378906 23.574219 19.539062 23.519531 C 16.335938 17.976562 15.460938 12.824219 17.628906 11.078125 C 20.359375 8.878906 26.945312 12.839844 32.410156 19.808594 C 33.542969 21.25 34.535156 22.699219 35.378906 24.109375 C 38.605469 29.515625 39.59375 34.40625 37.367188 36.402344 C 36.683594 37.015625 34.601562 37.253906 31.871094 36.007812 C 31.832031 36.058594 31.894531 36.1875 31.941406 36.21875 C 34.296875 37.179688 36.554688 37.546875 37.695312 36.628906 C 40.429688 34.425781 38.328125 26.640625 32.699219 19.464844 Z M 32.699219 19.464844 "/>
<path style=" stroke:none;fill-rule:nonzero;fill:rgb(100%,100%,100%);fill-opacity:1;" d="M 8.566406 20.316406 L 12.167969 20.316406 L 15.195312 25.515625 C 15.195312 25.515625 15.195312 21.75 15.195312 21.457031 C 15.195312 21 14.625 20.40625 14.421875 20.316406 C 14.664062 20.316406 16.773438 20.316406 16.917969 20.316406 C 16.761719 20.355469 16.273438 20.960938 16.273438 21.457031 C 16.273438 21.699219 16.273438 27.164062 16.273438 27.425781 C 16.273438 27.789062 16.796875 28.296875 17.046875 28.492188 L 13.570312 28.492188 L 10.496094 23.265625 C 10.496094 23.265625 10.496094 27.164062 10.496094 27.375 C 10.496094 27.78125 10.890625 28.175781 11.300781 28.507812 L 8.644531 28.507812 C 9.023438 28.34375 9.386719 27.832031 9.417969 27.425781 C 9.449219 27.015625 9.417969 21.757812 9.417969 21.53125 C 9.417969 21.03125 8.941406 20.625 8.566406 20.316406 Z M 8.566406 20.316406 "/>
<path style=" stroke:none;fill-rule:nonzero;fill:rgb(100%,100%,100%);fill-opacity:1;" d="M 41.535156 28.492188 L 46.332031 28.492188 C 46.066406 28.425781 45.765625 28.109375 45.605469 27.683594 C 45.445312 27.261719 42.902344 20.316406 42.902344 20.316406 L 41.082031 20.316406 C 40.5625 20.691406 40.007812 21.089844 39.417969 21.507812 C 39.414062 21.523438 39.414062 21.539062 39.410156 21.554688 C 39.332031 22.042969 37.90625 27.28125 37.820312 27.539062 C 37.699219 27.898438 37.078125 28.296875 36.828125 28.507812 L 39.410156 28.507812 C 39.152344 28.214844 38.945312 27.929688 38.992188 27.601562 C 39.042969 27.277344 39.1875 26.625 39.1875 26.625 L 41.855469 26.625 C 41.976562 26.949219 42.066406 27.242188 42.113281 27.523438 C 42.171875 27.855469 41.832031 28.230469 41.535156 28.492188 Z M 39.425781 25.582031 L 40.328125 22.597656 L 41.519531 25.582031 Z M 39.023438 20.613281 C 39.152344 20.515625 39.285156 20.414062 39.417969 20.316406 L 38.71875 20.316406 C 38.789062 20.378906 38.90625 20.484375 39.023438 20.613281 Z M 39.023438 20.613281 "/>
<path style=" stroke:none;fill-rule:nonzero;fill:rgb(100%,100%,100%);fill-opacity:1;" d="M 20.683594 27.601562 C 20.730469 27.277344 20.875 26.625 20.875 26.625 L 23.546875 26.625 C 23.667969 26.949219 23.757812 27.242188 23.804688 27.523438 C 23.859375 27.855469 23.523438 28.230469 23.222656 28.492188 L 27.445312 28.492188 C 27.535156 28.433594 27.621094 28.371094 27.707031 28.3125 C 27.546875 28.167969 27.394531 27.945312 27.296875 27.683594 C 27.132812 27.261719 24.589844 20.316406 24.589844 20.316406 L 20.40625 20.316406 C 20.609375 20.503906 21.1875 21.007812 21.101562 21.554688 C 21.019531 22.042969 19.59375 27.28125 19.507812 27.539062 C 19.386719 27.898438 18.765625 28.296875 18.515625 28.507812 L 21.101562 28.507812 C 20.84375 28.214844 20.632812 27.929688 20.683594 27.601562 Z M 22.015625 22.597656 L 23.207031 25.582031 L 21.117188 25.582031 Z M 22.015625 22.597656 "/>
<path style=" stroke:none;fill-rule:nonzero;fill:rgb(100%,100%,100%);fill-opacity:1;" d="M 35.265625 24.375 C 34.476562 24.90625 33.648438 25.460938 32.769531 26.039062 C 33.164062 26.234375 33.476562 26.476562 33.507812 26.789062 C 33.5625 27.375 32.394531 27.660156 31.34375 27.539062 C 31.132812 27.511719 30.925781 27.457031 30.726562 27.382812 C 30.507812 27.527344 30.289062 27.667969 30.0625 27.816406 C 29.835938 27.964844 29.558594 28.144531 29.242188 28.355469 L 29.242188 29.199219 C 29.453125 28.785156 29.910156 28.414062 30.265625 28.394531 C 30.417969 28.386719 30.949219 28.882812 33.136719 28.761719 C 34.199219 28.703125 36.25 27.554688 36.21875 26.234375 C 36.199219 25.453125 35.796875 24.84375 35.265625 24.375 Z M 29.242188 26.414062 L 29.242188 27.273438 C 29.4375 27.140625 29.625 27.011719 29.8125 26.886719 C 29.519531 26.679688 29.3125 26.484375 29.242188 26.414062 Z M 34.515625 23.835938 C 34.3125 23.710938 34.105469 23.605469 33.910156 23.511719 C 32.878906 23.019531 31.800781 22.929688 31.574219 22.269531 C 31.417969 21.804688 31.863281 21.375 32.960938 21.390625 C 34.054688 21.40625 35.066406 22.066406 35.339844 22.304688 L 35.339844 20.199219 C 35.261719 20.28125 34.90625 20.691406 34.585938 20.625 C 33.964844 20.492188 32.910156 20.324219 31.703125 20.332031 C 30.320312 20.339844 29.128906 21.421875 29.089844 22.792969 C 29.03125 24.707031 30.546875 25.230469 31.398438 25.53125 C 31.484375 25.5625 31.585938 25.597656 31.695312 25.632812 C 32.511719 25.09375 33.160156 24.675781 33.539062 24.457031 C 33.792969 24.308594 34.125 24.09375 34.515625 23.835938 Z M 34.515625 23.835938 "/>
</g>
</svg>
